<svg xmlns="http://www.w3.org/2000/svg" viewBox="0 0 326.97 234.64"><defs><style>.cls-1{fill:#29abe2;}</style></defs><g id="Camada_2" data-name="Camada 2"><g id="Camada_1-2" data-name="Camada 1"><path class="cls-1" d="M144.59,27.85,144.8,47a2.3,2.3,0,0,1-.66,1.64l-29.6,29.6a2.3,2.3,0,0,1-3.21,0l-9.88-9.53a2.28,2.28,0,0,1,0-3.26l39.26-39.26A2.29,2.29,0,0,1,144.59,27.85Z"/><path d="M326.84,213.8v18.55a2.28,2.28,0,0,1-3.9,1.62L247.67,158.7a2.28,2.28,0,0,1-.67-1.61V146.46a2.29,2.29,0,0,1,.67-1.62l75.4-75.4a2.28,2.28,0,0,1,3.9,1.62V89.61a2.29,2.29,0,0,1-.67,1.62l-58.92,58.93a2.27,2.27,0,0,0,0,3.23l58.79,58.79A2.29,2.29,0,0,1,326.84,213.8Z"/><path d="M158.47,213.8v18.55a2.28,2.28,0,0,0,3.9,1.62l75.27-75.27a2.28,2.28,0,0,0,.67-1.61V146.46a2.29,2.29,0,0,0-.67-1.62L164.78,72a2.28,2.28,0,0,0-3.9,1.62V92.16a2.28,2.28,0,0,0,.67,1.61l56.38,56.39a2.29,2.29,0,0,1,0,3.23l-58.79,58.79A2.29,2.29,0,0,0,158.47,213.8Z"/><path class="cls-1" d="M85.43,213.8v18.55a2.28,2.28,0,0,0,3.9,1.62L164.6,158.7a2.28,2.28,0,0,0,.67-1.61V146.46a2.29,2.29,0,0,0-.67-1.62L97.25,77.5a2.28,2.28,0,0,0-3.9,1.61V97.67A2.29,2.29,0,0,0,94,99.29l50.87,50.87a2.29,2.29,0,0,1,0,3.23L86.1,212.18A2.29,2.29,0,0,0,85.43,213.8Z"/><path d="M18.29,16V132.42a2.28,2.28,0,0,0,2.29,2.28H83.2a2.28,2.28,0,0,1,1.61.67l13.71,13.71A2.29,2.29,0,0,1,96.9,153l-86.81,0a2.26,2.26,0,0,1-1.61-.67L.68,144.5A2.31,2.31,0,0,1,0,142.89L0,2.29A2.28,2.28,0,0,1,3.9.67L17.62,14.39A2.29,2.29,0,0,1,18.29,16Z"/></g></g></svg>